<svg xmlns="http://www.w3.org/2000/svg" width="900" height="1400" viewBox="0 0 900 1400"><defs><style><![CDATA[@font-face{font-family:'LDQ';src:url('https://scarlet-obliged-prawn-408.mypinata.cloud/ipfs/bafybeihr6d2boeq4m4st6f4wzyzzqsbbbd46vqa3g5erzp7jti2bj4cdka') format('woff2');font-weight:normal;font-style:normal;}@font-face{font-family:'FZQKB';src:url('https://scarlet-obliged-prawn-408.mypinata.cloud/ipfs/bafkreihec7tbafq2gxeaf647jo3scjhefllqvtroiyzwfxpshhoapbvvx4') format('woff2');font-weight:normal;font-style:normal;}]]></style></defs><g id="outer-border"><rect x="12" y="12" width="876" height="1376" rx="60" ry="60" fill="#ffffff" stroke="#7B2E1D" stroke-opacity="0.08" stroke-width="4"/></g><defs><clipPath id="clipCard"><path d="M 116 60 H 784 A 28 28 0 0 1 812 88 A 28 28 0 0 1 840 116 V 464 A 28 28 0 0 1 812 492 A 28 28 0 0 1 784 520 H 116 A 28 28 0 0 1 88 492 A 28 28 0 0 1 60 464 V 116 A 28 28 0 0 1 88 88 A 28 28 0 0 1 116 60 Z"/></clipPath><filter id="decoBlur" x="-20%" y="-20%" width="140%" height="140%"><feGaussianBlur stdDeviation="12"/></filter></defs><g opacity="0.08" pointer-events="none"><text x="852" y="1352" text-anchor="end" dominant-baseline="ideographic" font-size="840" fill="#7B2E1D" font-family="LDQ, Noto Serif SC, STKaiti, KaiTi, serif" filter="url(#decoBlur)">天</text></g><path d="M 116 60 H 784 A 28 28 0 0 1 812 88 A 28 28 0 0 1 840 116 V 464 A 28 28 0 0 1 812 492 A 28 28 0 0 1 784 520 H 116 A 28 28 0 0 1 88 492 A 28 28 0 0 1 60 464 V 116 A 28 28 0 0 1 88 88 A 28 28 0 0 1 116 60 Z" fill="#ffffff" stroke="#7B2E1D" stroke-width="6" stroke-linejoin="round" stroke-linecap="round"/><g clip-path="url(#clipCard)"><rect x="46" y="46" width="808" height="488" fill="#F7EDEA"/><image x="46" y="46" width="808" height="488" opacity="0" preserveAspectRatio="xMidYMid slice" href="https://scarlet-obliged-prawn-408.mypinata.cloud/ipfs/bafybeiemssmg65azrtivoi4ka535h76r5qrdczvbpxyk3au3zfnifybaea/12_2.svg"><animate attributeName="opacity" from="0" to="1" dur="0.8s" fill="freeze"/></image></g><text x="124" y="640" font-size="172" fill="#3a2a1f" font-family="LDQ, Noto Serif SC, STKaiti, KaiTi, serif" writing-mode="tb" glyph-orientation-vertical="0">天</text><text x="129" y="642" font-size="22" fill="#acacac" font-family="FZQKB, Noto Serif SC, STSong, serif" text-anchor="end">tiān</text><text x="152" y="820" font-size="144" fill="#3a2a1f" font-family="LDQ, Noto Serif SC, STKaiti, KaiTi, serif" writing-mode="tb" glyph-orientation-vertical="0">地</text><text x="180" y="822" font-size="22" fill="#acacac" font-family="FZQKB, Noto Serif SC, STSong, serif" text-anchor="start">dì</text><text x="124" y="972" font-size="172" fill="#3a2a1f" font-family="LDQ, Noto Serif SC, STKaiti, KaiTi, serif" writing-mode="tb" glyph-orientation-vertical="0">否</text><text x="129" y="974" font-size="22" fill="#acacac" font-family="FZQKB, Noto Serif SC, STSong, serif" text-anchor="end">pǐ</text><text font-size="34" fill="#585657" font-family="FZQKB, Noto Serif SC, STSong, serif" writing-mode="vertical-rl"><tspan x="689" y="640">否</tspan><tspan x="689" y="686">之</tspan><tspan x="689" y="732">匪</tspan><tspan x="689" y="778">人</tspan><tspan x="689" y="824">，</tspan><tspan x="689" y="870">不</tspan><tspan x="689" y="916">利</tspan><tspan x="689" y="962">君</tspan><tspan x="689" y="1008">子</tspan><tspan x="689" y="1054">贞</tspan><tspan x="689" y="1100">，</tspan></text><text font-size="34" fill="#585657" font-family="FZQKB, Noto Serif SC, STSong, serif" writing-mode="vertical-rl"><tspan x="631" y="640">大</tspan><tspan x="631" y="686">往</tspan><tspan x="631" y="732">小</tspan><tspan x="631" y="778">来</tspan><tspan x="631" y="824">。</tspan></text><text font-size="34" fill="#585657" font-family="FZQKB, Noto Serif SC, STSong, serif" writing-mode="vertical-rl"><tspan x="573" y="640">天</tspan><tspan x="573" y="686">地</tspan><tspan x="573" y="732">不</tspan><tspan x="573" y="778">交</tspan><tspan x="573" y="824">，</tspan><tspan x="573" y="870">否</tspan><tspan x="573" y="916">。</tspan></text><text font-size="34" fill="#585657" font-family="FZQKB, Noto Serif SC, STSong, serif" writing-mode="vertical-rl"><tspan x="515" y="640">君</tspan><tspan x="515" y="686">子</tspan><tspan x="515" y="732">以</tspan><tspan x="515" y="778">俭</tspan><tspan x="515" y="824">德</tspan><tspan x="515" y="870">辟</tspan><tspan x="515" y="916">难</tspan><tspan x="515" y="962">，</tspan></text><text font-size="34" fill="#585657" font-family="FZQKB, Noto Serif SC, STSong, serif" writing-mode="vertical-rl"><tspan x="457" y="640">不</tspan><tspan x="457" y="686">可</tspan><tspan x="457" y="732">荣</tspan><tspan x="457" y="778">以</tspan><tspan x="457" y="824">禄</tspan><tspan x="457" y="870">。</tspan></text><g id="luck-badge"><circle cx="792" cy="1274" r="60" fill="#F7EDEA" fill-opacity="0.6" stroke="#7B2E1D" stroke-opacity="0.2" stroke-width="4"/><text x="792" y="1274" text-anchor="middle" font-size="48" fill="#3a2a1f" font-family="FZQKB, Noto Serif SC, STSong, serif" dominant-baseline="middle">40</text></g><g id="info-left"><rect x="48" y="1271" width="29" height="5" rx="2" ry="2" fill="#7B2E1D"/><rect x="83" y="1271" width="29" height="5" rx="2" ry="2" fill="#7B2E1D"/><rect x="48" y="1281" width="29" height="5" rx="2" ry="2" fill="#7B2E1D"/><rect x="83" y="1281" width="29" height="5" rx="2" ry="2" fill="#7B2E1D"/><rect x="48" y="1291" width="29" height="5" rx="2" ry="2" fill="#7B2E1D"/><rect x="83" y="1291" width="29" height="5" rx="2" ry="2" fill="#7B2E1D"/><rect x="48" y="1301" width="29" height="5" rx="2" ry="2" fill="#7B2E1D"/><rect x="83" y="1301" width="29" height="5" rx="2" ry="2" fill="#7B2E1D"/><rect x="48" y="1311" width="29" height="5" rx="2" ry="2" fill="#7B2E1D"/><rect x="83" y="1311" width="29" height="5" rx="2" ry="2" fill="#7B2E1D"/><rect x="48" y="1321" width="29" height="5" rx="2" ry="2" fill="#7B2E1D"/><rect x="83" y="1321" width="29" height="5" rx="2" ry="2" fill="#7B2E1D"/><text x="124" y="1296" text-anchor="start" font-size="28" fill="#838579" font-family="FZQKB, Noto Serif SC, STSong, serif" >第12卦 · 否卦</text><text x="124" y="1322" text-anchor="start" font-size="18" fill="#b5b4b2" font-family="FZQKB, Noto Serif SC, STSong, serif" >Hexagram 12 · Pi</text></g></svg>